# xmcd
#
# Track frame offsets:
#	150
#	11067
#	21489
#	31265
#	44285
#	56553
#	69587
#	80602
#	91602
#	102318
#	114164
#	122654
#	133629
#	145663
#	158228
#	170078
#	180611
#	190785
#	199334
#	209270
#	219802
#	229710
#	240884
#	250052
#	259615
#	270170
#	281762
#	290301
#	301494
#	312939
#	323893
#	332129
#	345077
#
# Disc length: 4768 seconds
#
# Revision: 0
# Processed by: cddbd v1.5.2PL0 Copyright (c) Steve Scherf et al.
# Submitted via: audiograbber 1.82.01
#
DISCID=c9129e21
DTITLE=John Zacherley - Twist Collection
DYEAR=2001
DGENRE=Twist
TTITLE0=Happy Halloween
TTITLE1=Let's Twist Again
TTITLE2=Monster Monkey
TTITLE3=Dinner With Drac
TTITLE4=Come With Me To Transylvania
TTITLE5=Monster Mash
TTITLE6=Pistol Stomp
TTITLE7=Weird Watusi
TTITLE8=Dummy Doll
TTITLE9=I Was A Teenage Caveman
TTITLE10=Monsters Have Problems, Too
TTITLE11=Limb From Limbo Rock
TTITLE12=Franc And Drac Are Back
TTITLE13=Lunch With Monster Goose
TTITLE14=Hello, Dolly
TTITLE15=A Ticket, A Casket
TTITLE16=I'm The Ghoul From Wolverton Mountain
TTITLE17=Ring A Ding Aurangotang
TTITLE18=Popeye
TTITLE19=A-B-C
TTITLE20=Eighty Two Tombstones
TTITLE21=Surfboard
TTITLE22=Dear Dear Valentine
TTITLE23=Gravy
TTITLE24=Baying At The Moon
TTITLE25=The Bat
TTITLE26=Scarey Tales From Mother Goose
TTITLE27=A Sure Sign Of Spring
TTITLE28=Coolest Little Monster
TTITLE29=Clementine
TTITLE30=The Spider and The Fly
TTITLE31=Igor
TTITLE32=Transylvania P.T.A.
EXTD=
EXTT0=
EXTT1=
EXTT2=
EXTT3=
EXTT4=
EXTT5=
EXTT6=
EXTT7=
EXTT8=
EXTT9=
EXTT10=
EXTT11=
EXTT12=
EXTT13=
EXTT14=
EXTT15=
EXTT16=
EXTT17=
EXTT18=
EXTT19=
EXTT20=
EXTT21=
EXTT22=
EXTT23=
EXTT24=
EXTT25=
EXTT26=
EXTT27=
EXTT28=
EXTT29=
EXTT30=
EXTT31=
EXTT32=
PLAYORDER=
